<?xml version="1.0" encoding="utf-8"?>
<!-- Generator: Adobe Illustrator 25.0.1, SVG Export Plug-In . SVG Version: 6.00 Build 0)  -->
<svg version="1.1" id="Layer_1" xmlns="http://www.w3.org/2000/svg" xmlns:xlink="http://www.w3.org/1999/xlink" x="0px" y="0px"
	 viewBox="0 0 17 10" style="enable-background:new 0 0 17 10;" xml:space="preserve">
<style type="text/css">
	.st0{fill-rule:evenodd;clip-rule:evenodd;fill:#231F20;}
</style>
<path class="st0" d="M11.5,0.2c0.1-0.1,0.1-0.1,0.2-0.2C11.9,0,11.9,0,12,0s0.2,0,0.3,0.1c0.1,0,0.2,0.1,0.2,0.2l4.2,4.2
	c0.1,0.1,0.1,0.1,0.2,0.2C17,4.8,17,4.9,17,5c0,0.1,0,0.2-0.1,0.3c0,0.1-0.1,0.2-0.2,0.2l-4.2,4.2c-0.1,0.1-0.3,0.2-0.5,0.2
	s-0.4-0.1-0.5-0.2c-0.1-0.1-0.2-0.3-0.2-0.5c0-0.2,0.1-0.4,0.2-0.5L15.3,5l-3.7-3.7c-0.1-0.1-0.1-0.1-0.2-0.2c0-0.1-0.1-0.2-0.1-0.3
	c0-0.1,0-0.2,0.1-0.3C11.4,0.4,11.5,0.3,11.5,0.2z"/>
<path class="st0" d="M0,5c0-0.2,0.1-0.4,0.2-0.5c0.1-0.1,0.3-0.2,0.5-0.2h14.9c0.2,0,0.4,0.1,0.5,0.2c0.1,0.1,0.2,0.3,0.2,0.5
	s-0.1,0.4-0.2,0.5c-0.1,0.1-0.3,0.2-0.5,0.2H0.7c-0.2,0-0.4-0.1-0.5-0.2C0.1,5.3,0,5.1,0,5z"/>
</svg>
