<?xml version="1.0" encoding="utf-8"?>
<!-- Generator: Adobe Illustrator 25.0.1, SVG Export Plug-In . SVG Version: 6.00 Build 0)  -->
<svg version="1.1" id="Layer_1" xmlns="http://www.w3.org/2000/svg" xmlns:xlink="http://www.w3.org/1999/xlink" x="0px" y="0px"
	 viewBox="0 0 15 10" style="enable-background:new 0 0 15 10;" xml:space="preserve">
<style type="text/css">
	.st0{fill:#DA3954;}
</style>
<path class="st0" d="M0.8,10h3.3C4.6,10,5,9.6,5,9.2c0-0.5-0.4-0.8-0.8-0.8H0.8C0.4,8.3,0,8.7,0,9.2C0,9.6,0.4,10,0.8,10z M0,0.8
	c0,0.5,0.4,0.8,0.8,0.8h13.3c0.5,0,0.8-0.4,0.8-0.8C15,0.4,14.6,0,14.2,0H0.8C0.4,0,0,0.4,0,0.8z M0.8,5.8h8.3C9.6,5.8,10,5.5,10,5
	S9.6,4.2,9.2,4.2H0.8C0.4,4.2,0,4.5,0,5S0.4,5.8,0.8,5.8z"/>
</svg>
